<?xml version="1.0" standalone="no"?>
<!DOCTYPE svg PUBLIC "-//W3C//DTD SVG 20010904//EN"
 "http://www.w3.org/TR/2001/REC-SVG-20010904/DTD/svg10.dtd">
<svg version="1.0" xmlns="http://www.w3.org/2000/svg"
 width="626.000000pt" height="626.000000pt" viewBox="0 0 626.000000 626.000000"
 preserveAspectRatio="xMidYMid meet">
<metadata>
Created by potrace 1.11, written by Peter Selinger 2001-2013
</metadata>
<g transform="translate(0.000000,626.000000) scale(0.100000,-0.100000)"
fill="#000000" stroke="none">
<path d="M2982 5972 c-66 -24 -118 -65 -159 -126 -45 -65 -53 -103 -53 -238
l0 -117 -57 -6 c-32 -4 -125 -20 -208 -36 -1114 -219 -1970 -1023 -2260 -2121
-40 -152 -43 -200 -15 -245 49 -81 101 -71 223 41 50 47 119 106 152 131 86
65 222 133 311 155 95 24 232 26 318 4 243 -62 487 -283 697 -632 67 -111 106
-152 145 -152 52 0 78 26 159 161 107 180 205 308 313 410 131 124 244 185
398 215 382 73 738 -152 1004 -634 65 -117 96 -152 137 -152 51 0 80 28 153
147 40 65 103 159 140 208 79 105 240 264 323 319 325 213 662 157 1006 -170
47 -44 96 -86 108 -92 51 -28 105 -6 134 55 20 41 20 49 9 106 -6 34 -31 130
-55 212 -277 955 -995 1674 -1965 1968 -128 39 -309 79 -441 97 l-87 12 -4
126 c-3 110 -7 134 -30 182 -70 151 -243 226 -396 172z"/>
<path d="M2983 3095 c-62 -17 -112 -42 -170 -84 l-43 -31 0 -668 c0 -629 -2
-669 -19 -708 -38 -84 -140 -118 -219 -74 -32 18 -50 40 -83 102 -74 138 -158
193 -294 193 -95 0 -150 -21 -219 -85 -77 -71 -115 -181 -96 -283 13 -69 78
-204 133 -275 213 -276 580 -381 910 -262 242 89 429 296 503 560 17 60 18
125 22 776 l3 712 -37 30 c-115 95 -262 131 -391 97z"/>
</g>
</svg>
